<?xml version="1.0" encoding="UTF-8"?> <svg xmlns="http://www.w3.org/2000/svg" width="135" height="40" viewBox="0 0 135 40" fill="none"> <path d="M68.1016 21.8001C65.7016 21.8001 63.8016 23.6001 63.8016 26.1001C63.8016 28.5001 65.7016 30.4001 68.1016 30.4001C70.5016 30.4001 72.4016 28.6001 72.4016 26.1001C72.4016 23.5001 70.5016 21.8001 68.1016 21.8001ZM68.1016 28.6001C66.8016 28.6001 65.7016 27.5001 65.7016 26.0001C65.7016 24.5001 66.8016 23.4001 68.1016 23.4001C69.4016 23.4001 70.5016 24.4001 70.5016 26.0001C70.5016 27.5001 69.4016 28.6001 68.1016 28.6001ZM58.8016 21.8001C56.4016 21.8001 54.5016 23.6001 54.5016 26.1001C54.5016 28.5001 56.4016 30.4001 58.8016 30.4001C61.2016 30.4001 63.1016 28.6001 63.1016 26.1001C63.1016 23.5001 61.2016 21.8001 58.8016 21.8001ZM58.8016 28.6001C57.5016 28.6001 56.4016 27.5001 56.4016 26.0001C56.4016 24.5001 57.5016 23.4001 58.8016 23.4001C60.1016 23.4001 61.2016 24.4001 61.2016 26.0001C61.2016 27.5001 60.1016 28.6001 58.8016 28.6001ZM47.7016 23.1001V24.9001H52.0016C51.9016 25.9001 51.5016 26.7001 51.0016 27.2001C50.4016 27.8001 49.4016 28.5001 47.7016 28.5001C45.0016 28.5001 43.0016 26.4001 43.0016 23.7001C43.0016 21.0001 45.1016 18.9001 47.7016 18.9001C49.1016 18.9001 50.2016 19.5001 51.0016 20.2001L52.3016 18.9001C51.2016 17.9001 49.8016 17.1001 47.8016 17.1001C44.2016 17.1001 41.1016 20.1001 41.1016 23.7001C41.1016 27.3001 44.2016 30.3001 47.8016 30.3001C49.8016 30.3001 51.2016 29.7001 52.4016 28.4001C53.6016 27.2001 54.0016 25.5001 54.0016 24.2001C54.0016 23.8001 54.0016 23.4001 53.9016 23.1001H47.7016ZM93.1016 24.5001C92.7016 23.5001 91.7016 21.8001 89.5016 21.8001C87.3016 21.8001 85.5016 23.5001 85.5016 26.1001C85.5016 28.5001 87.3016 30.4001 89.7016 30.4001C91.6016 30.4001 92.8016 29.2001 93.2016 28.5001L91.8016 27.5001C91.3016 28.2001 90.7016 28.7001 89.7016 28.7001C88.7016 28.7001 88.1016 28.3001 87.6016 27.4001L93.3016 25.0001L93.1016 24.5001ZM87.3016 25.9001C87.3016 24.3001 88.6016 23.4001 89.5016 23.4001C90.2016 23.4001 90.9016 23.8001 91.1016 24.3001L87.3016 25.9001ZM82.6016 30.0001H84.5016V17.5001H82.6016V30.0001ZM79.6016 22.7001C79.1016 22.2001 78.3016 21.7001 77.3016 21.7001C75.2016 21.7001 73.2016 23.6001 73.2016 26.0001C73.2016 28.4001 75.1016 30.2001 77.3016 30.2001C78.3016 30.2001 79.1016 29.7001 79.5016 29.2001H79.6016V29.8001C79.6016 31.4001 78.7016 32.3001 77.3016 32.3001C76.2016 32.3001 75.4016 31.5001 75.2016 30.8001L73.6016 31.5001C74.1016 32.6001 75.3016 34.0001 77.4016 34.0001C79.6016 34.0001 81.4016 32.7001 81.4016 29.6001V22.0001H79.6016V22.7001ZM77.4016 28.6001C76.1016 28.6001 75.0016 27.5001 75.0016 26.0001C75.0016 24.5001 76.1016 23.4001 77.4016 23.4001C78.7016 23.4001 79.7016 24.5001 79.7016 26.0001C79.7016 27.5001 78.7016 28.6001 77.4016 28.6001ZM101.802 17.5001H97.3016V30.0001H99.2016V25.3001H101.802C103.902 25.3001 105.902 23.8001 105.902 21.4001C105.902 19.0001 103.902 17.5001 101.802 17.5001ZM101.902 23.5001H99.2016V19.2001H101.902C103.302 19.2001 104.102 20.4001 104.102 21.3001C104.002 22.4001 103.202 23.5001 101.902 23.5001ZM113.402 21.7001C112.002 21.7001 110.602 22.3001 110.102 23.6001L111.802 24.3001C112.202 23.6001 112.802 23.4001 113.502 23.4001C114.502 23.4001 115.402 24.0001 115.502 25.0001V25.1001C115.202 24.9001 114.402 24.6001 113.602 24.6001C111.802 24.6001 110.002 25.6001 110.002 27.4001C110.002 29.1001 111.502 30.2001 113.102 30.2001C114.402 30.2001 115.002 29.6001 115.502 29.0001H115.602V30.0001H117.402V25.2001C117.202 23.0001 115.502 21.7001 113.402 21.7001ZM113.202 28.6001C112.602 28.6001 111.702 28.3001 111.702 27.5001C111.702 26.5001 112.802 26.2001 113.702 26.2001C114.502 26.2001 114.902 26.4001 115.402 26.6001C115.202 27.8001 114.202 28.6001 113.202 28.6001ZM123.702 22.0001L121.602 27.4001H121.502L119.302 22.0001H117.302L120.602 29.6001L118.702 33.8001H120.602L125.702 22.0001H123.702ZM106.902 30.0001H108.802V17.5001H106.902V30.0001Z" fill="#171818"></path> <path d="M10.3984 7.5C10.0984 7.8 9.89844 8.3 9.89844 8.9V31C9.89844 31.6 10.0984 32.1 10.3984 32.4L10.4984 32.5L22.8984 20.1V20V19.9L10.3984 7.5Z" fill="url(#paint0_linear)"></path> <path d="M26.9984 24.2998L22.8984 20.1998V19.9998V19.8998L26.9984 15.7998L27.0984 15.8998L31.9984 18.6998C33.3984 19.4998 33.3984 20.7998 31.9984 21.5998L26.9984 24.2998Z" fill="url(#paint1_linear)"></path> <path d="M27.0984 24.2L22.8984 20L10.3984 32.5C10.8984 33 11.5984 33 12.4984 32.6L27.0984 24.2Z" fill="url(#paint2_linear)"></path> <path d="M27.0984 15.8001L12.4984 7.50011C11.5984 7.00011 10.8984 7.10011 10.3984 7.60011L22.8984 20.0001L27.0984 15.8001Z" fill="url(#paint3_linear)"></path> <path opacity="0.2" d="M26.9984 24.1001L12.4984 32.3001C11.6984 32.8001 10.9984 32.7001 10.4984 32.3001L10.3984 32.4001L10.4984 32.5001C10.9984 32.9001 11.6984 33.0001 12.4984 32.5001L26.9984 24.1001Z" fill="black"></path> <path opacity="0.12" d="M10.4 32.2999C10.1 31.9999 10 31.4999 10 30.8999V30.9999C10 31.5999 10.2 32.0999 10.5 32.3999V32.2999H10.4Z" fill="black"></path> <path opacity="0.12" d="M32 21.3L27 24.1L27.1 24.2L32 21.4C32.7 21 33 20.5 33 20C33 20.5 32.6 20.9 32 21.3Z" fill="black"></path> <path opacity="0.25" d="M12.5 7.59988L32 18.6999C32.6 19.0999 33 19.4999 33 19.9999C33 19.4999 32.7 18.9999 32 18.5999L12.5 7.49988C11.1 6.69988 10 7.39988 10 8.99988V9.09988C10 7.49988 11.1 6.79988 12.5 7.59988Z" fill="white"></path> <path d="M46.4 10.3998C46.4 11.5998 46 12.4998 45.3 13.0998C44.6 13.5998 43.7 13.8998 42.5 13.8998C41.9 13.8998 41.4 13.8998 41 13.7998V7.3998C41.6 7.2998 42.2 7.2998 42.8 7.2998C43.9 7.2998 44.8 7.4998 45.4 7.9998C46.1 8.5998 46.4 9.3998 46.4 10.3998ZM45.3 10.3998C45.3 9.5998 45.1 9.0998 44.7 8.5998C44.3 8.1998 43.7 7.9998 42.9 7.9998C42.6 7.9998 42.3 7.9998 42.1 8.0998V12.9998C42.2 12.9998 42.5 12.9998 42.8 12.9998C43.6 12.9998 44.2 12.7998 44.7 12.2998C45.2 11.7998 45.3 11.2998 45.3 10.3998Z" fill="#171818"></path> <path d="M52.2992 11.4C52.2992 12.1 52.0992 12.7 51.6992 13.2C51.2992 13.7 50.6992 13.9 49.9992 13.9C49.2992 13.9 48.7992 13.7 48.2992 13.2C47.8992 12.7 47.6992 12.2 47.6992 11.5C47.6992 10.8 47.8992 10.2 48.2992 9.7C48.6992 9.2 49.2992 9 49.9992 9C50.6992 9 51.1992 9.2 51.6992 9.7C52.0992 10.2 52.2992 10.7 52.2992 11.4ZM51.1992 11.5C51.1992 11.1 51.0992 10.7 50.8992 10.4C50.6992 10 50.3992 9.8 49.9992 9.8C49.5992 9.8 49.2992 10 48.9992 10.4C48.7992 10.7 48.6992 11.1 48.6992 11.5C48.6992 11.9 48.7992 12.3 48.9992 12.6C49.1992 13 49.4992 13.2 49.9992 13.2C50.3992 13.2 50.6992 13 50.8992 12.6C51.0992 12.3 51.1992 11.9 51.1992 11.5Z" fill="#171818"></path> <path d="M60.2008 9.1L58.7008 13.8H57.7008L57.1008 11.8C56.9008 11.3 56.8008 10.8 56.7008 10.3C56.6008 10.8 56.5008 11.3 56.3008 11.8L55.7008 13.8H54.7008L53.3008 9.1H54.4008L54.9008 11.3C55.0008 11.8 55.1008 12.3 55.2008 12.8C55.3008 12.4 55.4008 11.9 55.6008 11.3L56.3008 9H57.2008L57.8008 11.2C58.0008 11.7 58.1008 12.3 58.2008 12.8C58.3008 12.3 58.4008 11.8 58.5008 11.2L59.1008 9L60.2008 9.1Z" fill="#171818"></path> <path d="M65.6016 13.7999H64.6016V11.0999C64.6016 10.2999 64.3016 9.8999 63.7016 9.8999C63.4016 9.8999 63.1016 9.9999 62.9016 10.1999C62.7016 10.3999 62.6016 10.6999 62.6016 10.9999V13.7999H61.6016V10.3999C61.6016 9.9999 61.6016 9.4999 61.6016 9.0999H62.4016V9.7999C62.5016 9.5999 62.7016 9.3999 62.9016 9.1999C63.2016 8.9999 63.5016 8.8999 63.8016 8.8999C64.2016 8.8999 64.6016 8.9999 64.9016 9.2999C65.3016 9.5999 65.4016 10.1999 65.4016 10.8999V13.7999H65.6016Z" fill="#171818"></path> <path d="M68.5 13.8H67.5V7H68.5V13.8Z" fill="#171818"></path> <path d="M74.7016 11.4C74.7016 12.1 74.5016 12.7 74.1016 13.2C73.7016 13.7 73.1016 13.9 72.4016 13.9C71.7016 13.9 71.2016 13.7 70.7016 13.2C70.3016 12.7 70.1016 12.2 70.1016 11.5C70.1016 10.8 70.3016 10.2 70.7016 9.7C71.1016 9.2 71.7016 9 72.4016 9C73.1016 9 73.6016 9.2 74.1016 9.7C74.5016 10.2 74.7016 10.7 74.7016 11.4ZM73.6016 11.5C73.6016 11.1 73.5016 10.7 73.3016 10.4C73.1016 10 72.8016 9.8 72.4016 9.8C72.0016 9.8 71.7016 10 71.4016 10.4C71.2016 10.7 71.1016 11.1 71.1016 11.5C71.1016 11.9 71.2016 12.3 71.4016 12.6C71.6016 13 71.9016 13.2 72.4016 13.2C72.8016 13.2 73.1016 13 73.3016 12.6C73.5016 12.3 73.6016 11.9 73.6016 11.5Z" fill="#171818"></path> <path d="M79.7008 13.8H78.8008L78.7008 13.3C78.4008 13.7 77.9008 13.9 77.3008 13.9C76.9008 13.9 76.5008 13.8 76.2008 13.5C76.0008 13.2 75.8008 12.9 75.8008 12.5C75.8008 11.9 76.0008 11.5 76.5008 11.2C77.0008 10.9 77.7008 10.7 78.5008 10.8V10.7C78.5008 10.1 78.2008 9.8 77.5008 9.8C77.0008 9.8 76.6008 9.9 76.3008 10.1L76.2008 9.4C76.6008 9.1 77.2008 9 77.8008 9C79.0008 9 79.6008 9.6 79.6008 10.9V12.6C79.7008 13.2 79.7008 13.6 79.7008 13.8ZM78.6008 12.2V11.5C77.4008 11.5 76.9008 11.8 76.9008 12.4C76.9008 12.6 77.0008 12.8 77.1008 13C77.2008 13.1 77.4008 13.2 77.6008 13.2C77.8008 13.2 78.0008 13.1 78.2008 13C78.4008 12.9 78.5008 12.7 78.6008 12.4C78.6008 12.3 78.6008 12.3 78.6008 12.2Z" fill="#171818"></path> <path d="M85.7008 13.8H84.8008V13C84.5008 13.6 84.0008 13.9 83.3008 13.9C82.7008 13.9 82.3008 13.7 81.9008 13.2C81.5008 12.7 81.3008 12.2 81.3008 11.5C81.3008 10.7 81.5008 10.1 81.9008 9.6C82.3008 9.2 82.8008 8.9 83.4008 8.9C84.0008 8.9 84.5008 9.1 84.7008 9.5V7H85.7008V12.6C85.6008 13 85.7008 13.4 85.7008 13.8ZM84.6008 11.8V11C84.6008 10.9 84.6008 10.8 84.6008 10.7C84.5008 10.4 84.4008 10.2 84.2008 10.1C84.0008 9.9 83.8008 9.8 83.5008 9.8C83.1008 9.8 82.8008 10 82.6008 10.3C82.4008 10.6 82.3008 11 82.3008 11.5C82.3008 12 82.4008 12.3 82.6008 12.6C82.8008 12.9 83.1008 13.1 83.5008 13.1C83.8008 13.1 84.1008 13 84.3008 12.7C84.5008 12.5 84.6008 12.2 84.6008 11.8Z" fill="#171818"></path> <path d="M94.6 11.4C94.6 12.1 94.4 12.7 94 13.2C93.6 13.7 93 13.9 92.3 13.9C91.6 13.9 91.1 13.7 90.6 13.2C90.2 12.7 90 12.2 90 11.5C90 10.8 90.2 10.2 90.6 9.7C91 9.2 91.6 9 92.3 9C93 9 93.5 9.2 94 9.7C94.4 10.2 94.6 10.7 94.6 11.4ZM93.6 11.5C93.6 11.1 93.5 10.7 93.3 10.4C93.1 10 92.8 9.8 92.4 9.8C92 9.8 91.7 10 91.4 10.4C91.2 10.7 91.1 11.1 91.1 11.5C91.1 11.9 91.2 12.3 91.4 12.6C91.6 13 91.9 13.2 92.4 13.2C92.8 13.2 93.1 13 93.3 12.6C93.5 12.3 93.6 11.9 93.6 11.5Z" fill="#171818"></path> <path d="M100.299 13.7999H99.2992V11.0999C99.2992 10.2999 98.9992 9.8999 98.2992 9.8999C97.9992 9.8999 97.6992 9.9999 97.4992 10.1999C97.2992 10.3999 97.1992 10.6999 97.1992 10.9999V13.7999H96.1992V10.3999C96.1992 9.9999 96.1992 9.4999 96.1992 9.0999H97.0992V9.7999C97.1992 9.5999 97.3992 9.3999 97.5992 9.1999C97.8992 8.9999 98.1992 8.8999 98.5992 8.8999C98.9992 8.8999 99.3992 8.9999 99.6992 9.2999C100.099 9.5999 100.199 10.1999 100.199 10.8999V13.7999H100.299Z" fill="#171818"></path> <path d="M107.298 9.9H106.098V12.2C106.098 12.8 106.298 13.1 106.698 13.1C106.898 13.1 106.998 13.1 107.198 13.1V13.9C106.998 14 106.698 14 106.398 14C105.998 14 105.698 13.9 105.398 13.6C105.198 13.3 105.098 12.9 105.098 12.3V9.9H104.398V9.1H105.098V8.3L106.098 8V9.2H107.298V9.9Z" fill="#171818"></path> <path d="M112.9 13.8H111.9V11.1C111.9 10.3 111.6 9.8 111 9.8C110.5 9.8 110.2 10 110 10.5C110 10.6 110 10.7 110 10.9V13.7H109V7H110V9.8C110.3 9.3 110.8 9 111.4 9C111.8 9 112.2 9.1 112.5 9.4C112.9 9.8 113 10.3 113 11C112.9 11 112.9 13.8 112.9 13.8Z" fill="#171818"></path> <path d="M118.6 11.3001C118.6 11.5001 118.6 11.6001 118.6 11.8001H115.4C115.4 12.3001 115.6 12.6001 115.9 12.9001C116.2 13.1001 116.5 13.2001 116.9 13.2001C117.4 13.2001 117.8 13.1001 118.2 13.0001L118.4 13.7001C118 13.9001 117.4 14.0001 116.8 14.0001C116.1 14.0001 115.5 13.8001 115.1 13.4001C114.7 13.0001 114.5 12.4001 114.5 11.7001C114.5 11.0001 114.7 10.4001 115.1 9.9001C115.5 9.4001 116.1 9.1001 116.7 9.1001C117.4 9.1001 117.9 9.4001 118.2 9.9001C118.5 10.2001 118.6 10.7001 118.6 11.3001ZM117.6 11.0001C117.6 10.7001 117.5 10.4001 117.4 10.2001C117.2 9.9001 116.9 9.8001 116.6 9.8001C116.3 9.8001 116 9.9001 115.8 10.2001C115.6 10.4001 115.5 10.7001 115.5 11.0001C115.4 11.0001 117.6 11.0001 117.6 11.0001Z" fill="#171818"></path> <defs> <linearGradient id="paint0_linear" x1="21.7981" y1="8.7097" x2="5.01574" y2="25.4921" gradientUnits="userSpaceOnUse"> <stop stop-color="#00A0FF"></stop> <stop offset="0.00657445" stop-color="#00A1FF"></stop> <stop offset="0.2601" stop-color="#00BEFF"></stop> <stop offset="0.5122" stop-color="#00D2FF"></stop> <stop offset="0.7604" stop-color="#00DFFF"></stop> <stop offset="1" stop-color="#00E3FF"></stop> </linearGradient> <linearGradient id="paint1_linear" x1="33.8328" y1="20.0012" x2="9.63594" y2="20.0012" gradientUnits="userSpaceOnUse"> <stop stop-color="#FFE000"></stop> <stop offset="0.4087" stop-color="#FFBD00"></stop> <stop offset="0.7754" stop-color="#FFA500"></stop> <stop offset="1" stop-color="#FF9C00"></stop> </linearGradient> <linearGradient id="paint2_linear" x1="24.8254" y1="22.2961" x2="2.06714" y2="45.0544" gradientUnits="userSpaceOnUse"> <stop stop-color="#FF3A44"></stop> <stop offset="1" stop-color="#C31162"></stop> </linearGradient> <linearGradient id="paint3_linear" x1="7.29574" y1="0.176312" x2="17.4583" y2="10.3388" gradientUnits="userSpaceOnUse"> <stop stop-color="#32A071"></stop> <stop offset="0.0685" stop-color="#2DA771"></stop> <stop offset="0.4762" stop-color="#15CF74"></stop> <stop offset="0.8009" stop-color="#06E775"></stop> <stop offset="1" stop-color="#00F076"></stop> </linearGradient> </defs> </svg> 