<svg id="icons" enable-background="new 0 0 64 64" height="30" viewBox="0 0 64 64" width="30"
     xmlns="http://www.w3.org/2000/svg">
    <path d="m17 4.5v3h-1-7-1v-3z" fill="#94c1ff"/>
    <path d="m16 7.5v4.74l-7 3.39v-8.13z" fill="#5c9eff"/>
    <path d="m63 19.5v4l-3-1.45-28-13.55-28 13.55-3 1.45v-4l8-3.87 7-3.39 16-7.74z" fill="#94c1ff"/>
    <path d="m51 28.5v11h-3v-14c1.66 0 3 1.34 3 3z" fill="#fff"/>
    <path d="m32 32.5c3.31 0 6 2.69 6 6 0 3.311-2.69 6-6 6-3.311 0-6-2.689-6-6 0-3.31 2.689-6 6-6z" fill="#d7e9ff"/>
    <path d="m32 25.5c7.18 0 13 5.82 13 13s-5.82 13-13 13c-7.181 0-13-5.82-13-13s5.819-13 13-13zm6 13c0-3.31-2.69-6-6-6-3.311 0-6 2.69-6 6 0 3.311 2.689 6 6 6 3.31 0 6-2.689 6-6z"
          fill="#fff"/>
    <path d="m17 30.5v2.01c0 .551-.45 1-1 1h-1.5-1.5c-.551 0-1-.449-1-1v-2.01h2.5z" fill="#fff"/>
    <path d="m16 33.51c.55 0 1-.449 1-1v-2.01h-2.5-2.5v2.01c0 .551.449 1 1 1h1.5zm29 4.99c0-7.18-5.82-13-13-13-7.181 0-13 5.82-13 13s5.819 13 13 13c7.18 0 13-5.82 13-13zm3-13v14h3v-11c0-1.66-1.34-3-3-3zm12-3.45v37.45h-56v-37.45l28-13.55z"
          fill="#d7e9ff"/>
    <g fill="#116fff">
        <path d="m1.001 20.5c-.372 0-.729-.208-.901-.564-.24-.497-.032-1.095.465-1.336l31-15c.5-.238 1.096-.03 1.336.465.24.497.032 1.095-.465 1.336l-31 15c-.141.067-.29.099-.435.099z"/>
        <path d="m62.999 20.5c-.146 0-.294-.032-.435-.1l-31-15c-.497-.241-.705-.839-.465-1.336.241-.495.837-.703 1.336-.465l31 15c.497.241.705.839.465 1.336-.172.357-.529.565-.901.565z"/>
        <path d="m1.001 24.5c-.372 0-.729-.208-.901-.564-.24-.497-.032-1.095.465-1.336l31-15c.5-.238 1.096-.03 1.336.465.24.497.032 1.095-.465 1.336l-31 15c-.141.067-.29.099-.435.099z"/>
        <path d="m62.999 24.5c-.146 0-.294-.032-.435-.1l-31-15c-.497-.241-.705-.839-.465-1.336.241-.495.837-.703 1.336-.465l31 15c.497.241.705.839.465 1.336-.172.357-.529.565-.901.565z"/>
        <path d="m1 24.5c-.553 0-1-.447-1-1v-4c0-.553.447-1 1-1s1 .447 1 1v4c0 .553-.447 1-1 1z"/>
        <path d="m63 24.5c-.553 0-1-.447-1-1v-4c0-.553.447-1 1-1s1 .447 1 1v4c0 .553-.447 1-1 1z"/>
        <path d="m4 60.5c-.553 0-1-.447-1-1v-37.451c0-.553.447-1 1-1s1 .447 1 1v37.451c0 .553-.447 1-1 1z"/>
        <path d="m60 60.5c-.553 0-1-.447-1-1v-37.451c0-.553.447-1 1-1s1 .447 1 1v37.451c0 .553-.447 1-1 1z"/>
        <path d="m60 60.5h-56c-.553 0-1-.447-1-1s.447-1 1-1h56c.553 0 1 .447 1 1s-.447 1-1 1z"/>
        <path d="m16 13.242c-.553 0-1-.447-1-1v-4.742c0-.553.447-1 1-1s1 .447 1 1v4.742c0 .553-.447 1-1 1z"/>
        <path d="m9 16.629c-.553 0-1-.447-1-1v-8.129c0-.553.447-1 1-1s1 .447 1 1v8.129c0 .553-.447 1-1 1z"/>
        <path d="m17 8.5h-9c-.553 0-1-.447-1-1v-3c0-.553.447-1 1-1h9c.553 0 1 .447 1 1v3c0 .553-.447 1-1 1zm-8-2h7v-1h-7z"/>
        <path d="m32 52.499c-7.72 0-14-6.28-14-14s6.28-14 14-14 14 6.28 14 14-6.28 14-14 14zm0-26c-6.617 0-12 5.383-12 12s5.383 12 12 12 12-5.383 12-12-5.383-12-12-12z"/>
        <path d="m32 45.499c-3.859 0-7-3.141-7-7s3.141-7 7-7 7 3.141 7 7-3.141 7-7 7zm0-12c-2.757 0-5 2.243-5 5s2.243 5 5 5 5-2.243 5-5-2.243-5-5-5z"/>
        <path d="m14.501 52.514c-.553 0-1-.447-1-1v-18.009c0-.553.447-1 1-1s1 .447 1 1v18.009c0 .552-.447 1-1 1z"/>
        <path d="m12.997 34.503c-1.102 0-1.997-.896-1.997-1.997 0-.53.418-.913.947-.942.525-.036.992.413 1.053.94.552 0 .998.447.998.999 0 .553-.448 1-1.001 1z"/>
        <path d="m16 34.505c-.553 0-1-.447-1-1s.447-1 1-1c0-.553.448-1.001 1.001-1.001s1.001.446 1.001.999c0 1.103-.898 2.002-2.002 2.002z"/>
        <path d="m16.003 34.503h-3.006c-.553 0-1-.447-1-1s.447-1 1-1h3.006c.553 0 1 .447 1 1s-.447 1-1 1z"/>
        <path d="m12.001 33.504c-.553 0-1-.447-1-1v-7.005c0-.553.447-1 1-1s1 .447 1 1v7.005c0 .553-.447 1-1 1z"/>
        <path d="m17.002 33.504c-.553 0-1-.447-1-1v-7.005c0-.553.447-1 1-1s1 .447 1 1v7.005c0 .553-.447 1-1 1z"/>
        <path d="m48.003 52.514c-.553 0-1-.447-1-1v-26.018c0-.553.447-1 1-1s1 .447 1 1v26.018c0 .552-.447 1-1 1z"/>
        <path d="m51.003 29.502c-.553 0-1-.447-1-1 0-1.106-.899-2.006-2.006-2.006-.553 0-1-.447-1-1s.447-1 1-1c2.209 0 4.006 1.797 4.006 4.006 0 .553-.447 1-1 1z"/>
        <path d="m51.003 40.502c-.553 0-1-.447-1-1v-11c0-.553.447-1 1-1s1 .447 1 1v11c0 .553-.447 1-1 1z"/>
        <path d="m51.003 40.502h-3c-.553 0-1-.447-1-1s.447-1 1-1h3c.553 0 1 .447 1 1s-.447 1-1 1z"/>
        <path d="m17.002 31.501h-5.001c-.553 0-1-.447-1-1s.447-1 1-1h5.001c.553 0 1 .447 1 1s-.447 1-1 1z"/>
        <path d="m14.5 31.5c-.553 0-1-.447-1-1v-5.001c0-.553.447-1 1-1s1 .447 1 1v5.001c0 .553-.447 1-1 1z"/>
    </g>
</svg>