<?xml version="1.0" encoding="UTF-8"?> <svg xmlns="http://www.w3.org/2000/svg" width="135" height="40" viewBox="0 0 135 40" fill="none"> <g clip-path="url(#clip0)"> <path d="M30.0972 19.8004C30.0972 16.6004 32.6972 15.0004 32.8972 14.9004C31.3972 12.7004 28.9972 12.4004 28.1972 12.4004C26.1972 12.2004 24.2972 13.6004 23.2972 13.6004C22.2972 13.6004 20.6972 12.4004 19.0972 12.5004C16.9972 12.5004 14.9972 13.8004 13.8972 15.7004C11.5972 19.6004 13.2972 25.4004 15.4972 28.6004C16.5972 30.2004 17.8972 31.9004 19.4972 31.8004C21.0972 31.7004 21.6972 30.8004 23.6972 30.8004C25.5972 30.8004 26.1972 31.8004 27.8972 31.8004C29.5972 31.8004 30.6972 30.2004 31.7972 28.7004C33.0972 26.9004 33.5972 25.2004 33.5972 25.1004C33.4972 24.9004 30.1972 23.6004 30.0972 19.8004Z" fill="#171818"></path> <path d="M26.897 10.3002C27.797 9.2002 28.397 7.7002 28.197 6.2002C26.897 6.3002 25.397 7.1002 24.397 8.1002C23.597 9.0002 22.897 10.6002 23.097 12.0002C24.597 12.2002 25.997 11.4002 26.897 10.3002Z" fill="#171818"></path> <path d="M53.5984 30.4997H51.2984L50.0984 26.5997H45.7984L44.5984 30.4997H42.3984L46.6984 17.1997H49.2984L53.5984 30.4997ZM49.7984 24.9997L48.6984 21.4997C48.5984 21.0997 48.3984 20.2997 47.9984 18.9997C47.8984 19.5997 47.6984 20.3997 47.3984 21.4997L46.1984 24.9997H49.7984Z" fill="#171818"></path> <path d="M64.6977 25.5997C64.6977 27.1997 64.2977 28.4997 63.3977 29.4997C62.5977 30.2997 61.5977 30.7997 60.4977 30.7997C59.1977 30.7997 58.2977 30.2997 57.7977 29.3997V34.4997H55.6977V24.0997C55.6977 23.0997 55.6977 21.9997 55.5977 20.8997H57.4977L57.5977 22.3997C58.2977 21.2997 59.3977 20.6997 60.7977 20.6997C61.8977 20.6997 62.8977 21.0997 63.5977 21.9997C64.2977 22.8997 64.6977 24.0997 64.6977 25.5997ZM62.4977 25.6997C62.4977 24.7997 62.2977 23.9997 61.8977 23.3997C61.3977 22.7997 60.7977 22.4997 59.9977 22.4997C59.4977 22.4997 58.9977 22.6997 58.5977 22.9997C58.1977 23.3997 57.8977 23.7997 57.7977 24.3997C57.6977 24.6997 57.6977 24.8997 57.6977 24.9997V26.5997C57.6977 27.2997 57.8977 27.8997 58.2977 28.3997C58.6977 28.8997 59.2977 29.0997 59.9977 29.0997C60.7977 29.0997 61.3977 28.7997 61.8977 28.1997C62.2977 27.4997 62.4977 26.6997 62.4977 25.6997Z" fill="#171818"></path> <path d="M75.6977 25.5997C75.6977 27.1997 75.2977 28.4997 74.3977 29.4997C73.5977 30.2997 72.5977 30.7997 71.4977 30.7997C70.1977 30.7997 69.2977 30.2997 68.7977 29.3997V34.4997H66.6977V24.0997C66.6977 23.0997 66.6977 21.9997 66.5977 20.8997H68.4977L68.5977 22.3997C69.2977 21.2997 70.3977 20.6997 71.7977 20.6997C72.8977 20.6997 73.8977 21.0997 74.5977 21.9997C75.2977 22.8997 75.6977 24.0997 75.6977 25.5997ZM73.4977 25.6997C73.4977 24.7997 73.2977 23.9997 72.8977 23.3997C72.3977 22.7997 71.7977 22.4997 70.9977 22.4997C70.4977 22.4997 69.9977 22.6997 69.5977 22.9997C69.1977 23.3997 68.8977 23.7997 68.7977 24.3997C68.6977 24.6997 68.6977 24.8997 68.6977 24.9997V26.5997C68.6977 27.2997 68.8977 27.8997 69.2977 28.3997C69.6977 28.8997 70.2977 29.0997 70.9977 29.0997C71.7977 29.0997 72.3977 28.7997 72.8977 28.1997C73.2977 27.4997 73.4977 26.6997 73.4977 25.6997Z" fill="#171818"></path> <path d="M87.9969 26.7997C87.9969 27.8997 87.5969 28.8997 86.7969 29.5997C85.8969 30.3997 84.6969 30.7997 83.1969 30.7997C81.7969 30.7997 80.5969 30.4997 79.7969 29.9997L80.2969 28.1997C81.1969 28.7997 82.2969 29.0997 83.3969 29.0997C84.1969 29.0997 84.7969 28.8997 85.2969 28.5997C85.6969 28.1997 85.9969 27.7997 85.9969 27.0997C85.9969 26.5997 85.7969 26.0997 85.3969 25.6997C84.9969 25.2997 84.3969 24.9997 83.5969 24.6997C81.2969 23.7997 80.0969 22.5997 80.0969 20.8997C80.0969 19.7997 80.4969 18.8997 81.2969 18.1997C82.0969 17.4997 83.1969 17.1997 84.5969 17.1997C85.7969 17.1997 86.7969 17.3997 87.5969 17.7997L86.9969 19.3997C86.1969 18.9997 85.3969 18.7997 84.4969 18.7997C83.6969 18.7997 83.1969 18.9997 82.6969 19.3997C82.2969 19.6997 82.1969 20.0997 82.1969 20.5997C82.1969 21.0997 82.3969 21.5997 82.7969 21.8997C83.1969 22.1997 83.7969 22.5997 84.6969 22.8997C85.7969 23.3997 86.6969 23.8997 87.1969 24.4997C87.7969 25.0997 87.9969 25.8997 87.9969 26.7997Z" fill="#171818"></path> <path d="M95.0992 22.4995H92.7992V27.1995C92.7992 28.3995 93.1992 28.9995 93.9992 28.9995C94.3992 28.9995 94.6992 28.9995 94.8992 28.8995L94.9992 30.4995C94.5992 30.6995 93.9992 30.6995 93.2992 30.6995C92.4992 30.6995 91.7992 30.3995 91.2992 29.8995C90.7992 29.3995 90.5992 28.4995 90.5992 27.2995V22.4995H89.1992V20.8995H90.5992V19.0995L92.6992 18.4995V20.8995H94.9992C95.0992 20.8995 95.0992 22.4995 95.0992 22.4995Z" fill="#171818"></path> <path d="M105.699 25.5997C105.699 27.0997 105.299 28.2997 104.399 29.1997C103.499 30.1997 102.299 30.6997 100.899 30.6997C99.4992 30.6997 98.3992 30.1997 97.4992 29.2997C96.5992 28.3997 96.1992 27.1997 96.1992 25.7997C96.1992 24.2997 96.5992 23.0997 97.4992 22.0997C98.3992 21.1997 99.4992 20.6997 100.999 20.6997C102.399 20.6997 103.499 21.1997 104.399 22.0997C105.299 22.9997 105.699 24.1997 105.699 25.5997ZM103.499 25.6997C103.499 24.7997 103.299 24.0997 102.899 23.3997C102.499 22.5997 101.799 22.2997 100.999 22.2997C100.099 22.2997 99.4992 22.6997 98.9992 23.3997C98.5992 23.9997 98.3992 24.7997 98.3992 25.6997C98.3992 26.5997 98.5992 27.2997 98.9992 27.9997C99.4992 28.7997 100.099 29.0997 100.899 29.0997C101.699 29.0997 102.399 28.6997 102.799 27.8997C103.299 27.2997 103.499 26.5997 103.499 25.6997Z" fill="#171818"></path> <path d="M112.6 22.7997C112.4 22.7997 112.2 22.6997 111.9 22.6997C111.1 22.6997 110.6 22.9997 110.2 23.5997C109.8 24.0997 109.7 24.6997 109.7 25.4997V30.4997H107.6V23.8997C107.6 22.7997 107.6 21.7997 107.5 20.8997H109.4L109.5 22.6997H109.6C109.8 22.0997 110.2 21.5997 110.7 21.1997C111.2 20.8997 111.7 20.6997 112.2 20.6997C112.4 20.6997 112.6 20.6997 112.7 20.6997C112.6 20.7997 112.6 22.7997 112.6 22.7997Z" fill="#171818"></path> <path d="M122.198 25.2999C122.198 25.6999 122.198 25.9999 122.098 26.2999H115.698C115.698 27.1999 115.998 27.9999 116.598 28.4999C117.098 28.8999 117.798 29.1999 118.698 29.1999C119.598 29.1999 120.498 28.9999 121.298 28.6999L121.598 30.1999C120.698 30.5999 119.598 30.7999 118.398 30.7999C116.898 30.7999 115.698 30.3999 114.898 29.4999C114.098 28.5999 113.598 27.4999 113.598 25.9999C113.598 24.5999 113.998 23.2999 114.798 22.3999C115.598 21.3999 116.698 20.8999 118.198 20.8999C119.598 20.8999 120.598 21.3999 121.298 22.3999C121.898 22.9999 122.198 24.0999 122.198 25.2999ZM120.098 24.6999C120.098 24.0999 119.998 23.4999 119.698 23.0999C119.298 22.4999 118.798 22.1999 117.998 22.1999C117.298 22.1999 116.698 22.4999 116.298 23.0999C115.898 23.5999 115.698 24.0999 115.698 24.7999L120.098 24.6999Z" fill="#171818"></path> <path d="M48.9977 9.9999C48.9977 11.1999 48.5977 12.0999 47.8977 12.6999C47.1977 13.1999 46.2977 13.4999 45.0977 13.4999C44.4977 13.4999 43.9977 13.4999 43.5977 13.3999V6.9999C44.1977 6.8999 44.7977 6.8999 45.3977 6.8999C46.4977 6.8999 47.3977 7.0999 47.9977 7.5999C48.6977 8.1999 48.9977 8.9999 48.9977 9.9999ZM47.8977 9.9999C47.8977 9.1999 47.6977 8.6999 47.2977 8.1999C46.8977 7.7999 46.2977 7.5999 45.4977 7.5999C45.1977 7.5999 44.8977 7.5999 44.6977 7.6999V12.5999C44.7977 12.5999 45.0977 12.5999 45.3977 12.5999C46.1977 12.5999 46.7977 12.3999 47.2977 11.8999C47.7977 11.3999 47.8977 10.8999 47.8977 9.9999Z" fill="#171818"></path> <path d="M54.8969 11.0001C54.8969 11.7001 54.6969 12.3001 54.2969 12.8001C53.8969 13.3001 53.2969 13.5001 52.5969 13.5001C51.8969 13.5001 51.3969 13.3001 50.8969 12.8001C50.4969 12.3001 50.2969 11.8001 50.2969 11.1001C50.2969 10.4001 50.4969 9.8001 50.8969 9.3001C51.2969 8.8001 51.8969 8.6001 52.5969 8.6001C53.2969 8.6001 53.7969 8.8001 54.2969 9.3001C54.6969 9.8001 54.8969 10.3001 54.8969 11.0001ZM53.7969 11.1001C53.7969 10.7001 53.6969 10.3001 53.4969 10.0001C53.2969 9.6001 52.9969 9.4001 52.5969 9.4001C52.1969 9.4001 51.8969 9.6001 51.5969 10.0001C51.3969 10.3001 51.2969 10.7001 51.2969 11.1001C51.2969 11.5001 51.3969 11.9001 51.5969 12.2001C51.7969 12.6001 52.0969 12.8001 52.5969 12.8001C52.9969 12.8001 53.2969 12.6001 53.4969 12.2001C53.6969 11.9001 53.7969 11.5001 53.7969 11.1001Z" fill="#171818"></path> <path d="M62.7984 8.7001L61.2984 13.4001H60.2984L59.6984 11.4001C59.4984 10.9001 59.3984 10.4001 59.2984 9.9001C59.1984 10.4001 59.0984 10.9001 58.8984 11.4001L58.2984 13.4001H57.2984L55.8984 8.7001H56.9984L57.4984 10.9001C57.5984 11.4001 57.6984 11.9001 57.7984 12.4001C57.8984 12.0001 57.9984 11.5001 58.1984 10.9001L58.8984 8.6001H59.7984L60.3984 10.8001C60.5984 11.3001 60.6984 11.9001 60.7984 12.4001C60.8984 11.9001 60.9984 11.4001 61.0984 10.8001L61.6984 8.6001L62.7984 8.7001Z" fill="#171818"></path> <path d="M68.1992 13.4H67.1992V10.7C67.1992 9.9 66.8992 9.5 66.2992 9.5C65.9992 9.5 65.6992 9.6 65.4992 9.8C65.2992 10 65.1992 10.3 65.1992 10.6V13.4H64.1992V10C64.1992 9.6 64.1992 9.1 64.1992 8.7H64.9992V9.4C65.0992 9.2 65.2992 9 65.4992 8.8C65.7992 8.6 66.0992 8.5 66.3992 8.5C66.7992 8.5 67.1992 8.6 67.4992 8.9C67.8992 9.2 67.9992 9.8 67.9992 10.5V13.4H68.1992Z" fill="#171818"></path> <path d="M71.0977 13.4001H70.0977V6.6001H71.0977V13.4001Z" fill="#171818"></path> <path d="M77.2992 11.0001C77.2992 11.7001 77.0992 12.3001 76.6992 12.8001C76.2992 13.3001 75.6992 13.5001 74.9992 13.5001C74.2992 13.5001 73.7992 13.3001 73.2992 12.8001C72.8992 12.3001 72.6992 11.8001 72.6992 11.1001C72.6992 10.4001 72.8992 9.8001 73.2992 9.3001C73.6992 8.8001 74.2992 8.6001 74.9992 8.6001C75.6992 8.6001 76.1992 8.8001 76.6992 9.3001C77.0992 9.8001 77.2992 10.3001 77.2992 11.0001ZM76.1992 11.1001C76.1992 10.7001 76.0992 10.3001 75.8992 10.0001C75.6992 9.6001 75.3992 9.4001 74.9992 9.4001C74.5992 9.4001 74.2992 9.6001 73.9992 10.0001C73.7992 10.3001 73.6992 10.7001 73.6992 11.1001C73.6992 11.5001 73.7992 11.9001 73.9992 12.2001C74.1992 12.6001 74.4992 12.8001 74.9992 12.8001C75.3992 12.8001 75.6992 12.6001 75.8992 12.2001C76.0992 11.9001 76.1992 11.5001 76.1992 11.1001Z" fill="#171818"></path> <path d="M82.2984 13.4001H81.3984L81.2984 12.9001C80.9984 13.3001 80.4984 13.5001 79.8984 13.5001C79.4984 13.5001 79.0984 13.4001 78.7984 13.1001C78.5984 12.8001 78.3984 12.5001 78.3984 12.1001C78.3984 11.5001 78.5984 11.1001 79.0984 10.8001C79.5984 10.5001 80.2984 10.3001 81.0984 10.4001V10.3001C81.0984 9.7001 80.7984 9.4001 80.0984 9.4001C79.5984 9.4001 79.1984 9.5001 78.8984 9.7001L78.7984 9.0001C79.1984 8.7001 79.7984 8.6001 80.3984 8.6001C81.5984 8.6001 82.1984 9.2001 82.1984 10.5001V12.2001C82.2984 12.8001 82.2984 13.2001 82.2984 13.4001ZM81.1984 11.8001V11.1001C79.9984 11.1001 79.4984 11.4001 79.4984 12.0001C79.4984 12.2001 79.5984 12.4001 79.6984 12.6001C79.7984 12.7001 79.9984 12.8001 80.1984 12.8001C80.3984 12.8001 80.5984 12.7001 80.7984 12.6001C80.9984 12.5001 81.0984 12.3001 81.1984 12.0001C81.1984 11.9001 81.1984 11.9001 81.1984 11.8001Z" fill="#171818"></path> <path d="M88.2984 13.4001H87.3984V12.6001C87.0984 13.2001 86.5984 13.5001 85.8984 13.5001C85.2984 13.5001 84.8984 13.3001 84.4984 12.8001C84.0984 12.3001 83.8984 11.8001 83.8984 11.1001C83.8984 10.3001 84.0984 9.7001 84.4984 9.2001C84.8984 8.8001 85.3984 8.5001 85.9984 8.5001C86.5984 8.5001 87.0984 8.7001 87.2984 9.1001V6.6001H88.2984V12.2001C88.1984 12.6001 88.2984 13.0001 88.2984 13.4001ZM87.1984 11.4001V10.6001C87.1984 10.5001 87.1984 10.4001 87.1984 10.3001C87.0984 10.0001 86.9984 9.8001 86.7984 9.7001C86.5984 9.5001 86.3984 9.4001 86.0984 9.4001C85.6984 9.4001 85.3984 9.6001 85.1984 9.9001C84.9984 10.2001 84.8984 10.6001 84.8984 11.1001C84.8984 11.6001 84.9984 11.9001 85.1984 12.2001C85.3984 12.5001 85.6984 12.7001 86.0984 12.7001C86.3984 12.7001 86.6984 12.6001 86.8984 12.3001C87.0984 12.1001 87.1984 11.8001 87.1984 11.4001Z" fill="#171818"></path> <path d="M97.1977 11.0001C97.1977 11.7001 96.9977 12.3001 96.5977 12.8001C96.1977 13.3001 95.5977 13.5001 94.8977 13.5001C94.1977 13.5001 93.6977 13.3001 93.1977 12.8001C92.7977 12.3001 92.5977 11.8001 92.5977 11.1001C92.5977 10.4001 92.7977 9.8001 93.1977 9.3001C93.5977 8.8001 94.1977 8.6001 94.8977 8.6001C95.5977 8.6001 96.0977 8.8001 96.5977 9.3001C96.9977 9.8001 97.1977 10.3001 97.1977 11.0001ZM96.1977 11.1001C96.1977 10.7001 96.0977 10.3001 95.8977 10.0001C95.6977 9.6001 95.3977 9.4001 94.9977 9.4001C94.5977 9.4001 94.2977 9.6001 93.9977 10.0001C93.7977 10.3001 93.6977 10.7001 93.6977 11.1001C93.6977 11.5001 93.7977 11.9001 93.9977 12.2001C94.1977 12.6001 94.4977 12.8001 94.9977 12.8001C95.3977 12.8001 95.6977 12.6001 95.8977 12.2001C96.0977 11.9001 96.1977 11.5001 96.1977 11.1001Z" fill="#171818"></path> <path d="M102.897 13.4H101.897V10.7C101.897 9.9 101.597 9.5 100.897 9.5C100.597 9.5 100.297 9.6 100.097 9.8C99.8969 10 99.7969 10.3 99.7969 10.6V13.4H98.7969V10C98.7969 9.6 98.7969 9.1 98.7969 8.7H99.6969V9.4C99.7969 9.2 99.9969 9 100.197 8.8C100.497 8.6 100.797 8.5 101.197 8.5C101.597 8.5 101.997 8.6 102.297 8.9C102.697 9.2 102.797 9.8 102.797 10.5V13.4H102.897Z" fill="#171818"></path> <path d="M109.896 9.5001H108.696V11.8001C108.696 12.4001 108.896 12.7001 109.296 12.7001C109.496 12.7001 109.596 12.7001 109.796 12.7001V13.5001C109.596 13.6001 109.296 13.6001 108.996 13.6001C108.596 13.6001 108.296 13.5001 107.996 13.2001C107.796 12.9001 107.696 12.5001 107.696 11.9001V9.5001H106.996V8.7001H107.696V7.9001L108.696 7.6001V8.8001H109.896V9.5001Z" fill="#171818"></path> <path d="M115.498 13.4001H114.498V10.7001C114.498 9.9001 114.198 9.4001 113.598 9.4001C113.098 9.4001 112.798 9.6001 112.598 10.1001C112.598 10.2001 112.598 10.3001 112.598 10.5001V13.3001H111.598V6.6001H112.598V9.4001C112.898 8.9001 113.398 8.6001 113.998 8.6001C114.398 8.6001 114.798 8.7001 115.098 9.0001C115.498 9.4001 115.598 9.9001 115.598 10.6001C115.498 10.6001 115.498 13.4001 115.498 13.4001Z" fill="#171818"></path> <path d="M121.198 10.9002C121.198 11.1002 121.198 11.2002 121.198 11.4002H117.998C117.998 11.9002 118.198 12.2002 118.498 12.5002C118.798 12.7002 119.098 12.8002 119.498 12.8002C119.998 12.8002 120.398 12.7002 120.798 12.6002L120.998 13.3002C120.598 13.5002 119.998 13.6002 119.398 13.6002C118.698 13.6002 118.098 13.4002 117.698 13.0002C117.298 12.6002 117.098 12.0002 117.098 11.3002C117.098 10.6002 117.298 10.0002 117.698 9.5002C118.098 9.0002 118.698 8.7002 119.298 8.7002C119.998 8.7002 120.498 9.0002 120.798 9.5002C121.098 9.8002 121.198 10.3002 121.198 10.9002ZM120.198 10.6002C120.198 10.3002 120.098 10.0002 119.998 9.8002C119.798 9.5002 119.498 9.4002 119.198 9.4002C118.898 9.4002 118.598 9.5002 118.398 9.8002C118.198 10.0002 118.098 10.3002 118.098 10.6002C117.998 10.6002 120.198 10.6002 120.198 10.6002Z" fill="#171818"></path> </g> <defs> <clipPath id="clip0"> <rect width="135" height="40" fill="white"></rect> </clipPath> </defs> </svg> 